# xmcd
#
# Track frame offsets:
#	150
#	5747
#	13791
#	27188
#	37139
#	45495
#	51161
#	57968
#	67195
#	73160
#	84163
#	93463
#	105338
#	114184
#	122830
#	130975
#	139560
#	146457
#	157081
#	164546
#	172887
#	184246
#	194211
#	204874
#	220901
#	233572
#
# Disc length: 3119 seconds
#
# Revision: 1
# Processed by: cddbd v1.5.1PL0 Copyright (c) Steve Scherf et al.
# Submitted via: CDex 1.50Beta5
#
DISCID=740c2d1a
DTITLE=Z-KAI - 速読英単語上級編4
DYEAR=1900
DGENRE=Other
TTITLE0=26-b
TTITLE1=27
TTITLE2=28
TTITLE3=29
TTITLE4=30
TTITLE5=31
TTITLE6=32
TTITLE7=33
TTITLE8=34
TTITLE9=35
TTITLE10=36
TTITLE11=37
TTITLE12=38
TTITLE13=39
TTITLE14=40
TTITLE15=41
TTITLE16=42
TTITLE17=43
TTITLE18=44
TTITLE19=45
TTITLE20=46
TTITLE21=47
TTITLE22=48
TTITLE23=49
TTITLE24=50
TTITLE25=END
EXTD=
EXTT0=
EXTT1=
EXTT2=
EXTT3=
EXTT4=
EXTT5=
EXTT6=
EXTT7=
EXTT8=
EXTT9=
EXTT10=
EXTT11=
EXTT12=
EXTT13=
EXTT14=
EXTT15=
EXTT16=
EXTT17=
EXTT18=
EXTT19=
EXTT20=
EXTT21=
EXTT22=
EXTT23=
EXTT24=
EXTT25=
PLAYORDER=
